<?xml version="1.0" standalone="no"?>
<!DOCTYPE svg PUBLIC "-//W3C//DTD SVG 20010904//EN"
 "http://www.w3.org/TR/2001/REC-SVG-20010904/DTD/svg10.dtd">
<svg version="1.0" xmlns="http://www.w3.org/2000/svg"
 width="451.000000pt" height="451.000000pt" viewBox="0 0 451.000000 451.000000"
 preserveAspectRatio="xMidYMid meet">
<metadata>
Created by potrace 1.11, written by Peter Selinger 2001-2013
</metadata>
<g transform="translate(0.000000,451.000000) scale(0.100000,-0.100000)"
fill="#000000" stroke="none">
<path d="M1147 4033 c-1 -1 -74 -4 -162 -7 -211 -7 -527 -19 -590 -21 -27 -2
-88 -3 -135 -4 -47 -1 -91 -5 -98 -9 -11 -8 -16 -170 -13 -463 l1 -67 108 6
c59 3 132 6 162 6 l55 1 2 -545 c1 -300 2 -552 2 -560 1 -13 41 -15 296 -15
l295 0 1 25 c0 14 1 272 1 573 0 607 -3 576 66 578 20 0 45 2 56 4 15 3 152
15 194 18 6 0 12 3 13 6 1 10 1 445 0 464 -1 17 -11 18 -127 15 -69 -2 -126
-4 -127 -5z m-564 -116 c69 -39 108 -138 84 -212 -14 -44 -54 -93 -89 -111
-39 -20 -124 -24 -164 -8 -62 25 -114 110 -114 184 0 66 82 161 150 173 40 7
92 -3 133 -26z"/>
<path d="M1948 4035 c-2 -2 -61 -6 -133 -10 -71 -3 -143 -8 -158 -10 -16 -2
-72 -7 -125 -10 -54 -4 -100 -9 -103 -11 -4 -2 -6 -370 -6 -818 0 -740 1 -815
16 -818 42 -10 940 0 998 11 274 52 424 204 437 440 9 165 -65 286 -220 361
-58 28 -76 50 -40 50 21 0 92 76 118 127 46 90 62 161 62 268 -1 119 -23 189
-84 257 -59 67 -190 128 -330 153 -34 7 -426 15 -432 10z m-129 -110 c94 -48
128 -154 80 -250 -33 -65 -86 -99 -159 -99 -32 0 -71 6 -86 14 -102 52 -136
192 -67 278 58 73 155 97 232 57z m373 -354 c39 -15 61 -55 61 -110 1 -94 -57
-141 -173 -141 l-60 0 0 129 c0 91 4 131 12 133 22 8 133 0 160 -11z m20 -543
c76 -14 108 -44 108 -103 0 -87 -87 -124 -272 -116 l-28 1 0 108 c0 60 3 112
7 116 10 10 117 6 185 -6z"/>
<path d="M3615 4009 c-246 -36 -482 -204 -618 -439 -35 -62 -84 -212 -93 -285
-33 -285 44 -520 234 -713 79 -80 175 -146 267 -185 123 -51 304 -75 431 -56
33 5 74 12 93 14 52 8 194 51 232 70 50 26 121 75 146 102 l22 23 -19 57 c-10
32 -39 123 -65 202 -25 79 -48 147 -51 152 -3 5 -22 -3 -43 -17 -53 -35 -168
-72 -237 -77 -112 -8 -202 24 -273 96 -125 126 -127 313 -5 435 71 70 128 95
224 98 98 2 238 -40 323 -99 l27 -19 14 34 c8 19 35 99 60 178 24 80 52 164
60 187 l15 43 -42 33 c-85 68 -230 132 -360 158 -70 14 -268 19 -342 8z m-119
-159 c46 -23 90 -79 100 -127 13 -65 -4 -122 -50 -167 -122 -123 -320 -39
-318 134 1 43 29 105 60 133 52 47 142 58 208 27z"/>
<path d="M3262 2203 c-27 -48 -96 -171 -153 -273 -228 -410 -264 -474 -274
-477 -7 -2 -10 21 -9 64 2 38 5 197 8 356 l5 287 -42 1 c-23 1 -53 2 -67 4
-14 1 -74 5 -135 9 -60 4 -132 9 -160 11 -27 2 -89 7 -137 10 l-86 6 0 -840 0
-841 314 0 315 0 -7 278 c-4 152 -7 300 -8 327 -4 86 8 93 42 27 37 -70 310
-567 339 -617 l30 -50 64 1 c62 1 277 12 369 19 25 2 90 7 145 10 55 4 102 9
104 11 5 5 -16 35 -224 331 -311 442 -345 491 -345 502 0 6 111 185 248 397
136 212 247 388 246 392 0 6 -94 35 -149 46 -29 6 -244 64 -280 75 -16 5 -46
13 -66 16 l-36 7 -51 -89z m-708 -124 c40 -26 86 -107 86 -149 0 -70 -44 -140
-106 -171 -127 -61 -265 24 -266 164 -1 77 30 130 97 166 54 30 138 25 189
-10z"/>
<path d="M1263 2178 c-12 -13 -59 -73 -105 -133 -46 -61 -116 -153 -155 -205
-40 -52 -155 -203 -255 -336 l-183 -240 0 -205 0 -204 400 -5 400 -5 1 -172
c1 -95 2 -178 3 -184 1 -10 35 -9 211 6 30 2 84 7 120 10 141 11 205 17 213
22 4 2 7 76 7 164 l0 159 110 0 110 0 -2 237 -3 238 -100 0 -100 0 -1 410 c-1
226 -2 413 -3 418 0 4 -13 7 -28 6 -27 -2 -186 7 -288 16 -27 3 -97 7 -155 10
-58 3 -121 8 -141 10 -28 4 -40 1 -56 -17z m154 -79 c15 -5 41 -22 56 -37 78
-73 83 -180 14 -259 -39 -44 -82 -63 -142 -63 -163 0 -239 189 -127 317 40 47
135 67 199 42z m-29 -625 c-1 -102 -5 -187 -8 -189 -3 -2 -46 -6 -95 -9 -50
-4 -110 -9 -134 -12 -27 -4 -42 -2 -40 4 8 21 264 391 271 392 4 0 7 -84 6
-186z"/>
</g>
</svg>
